Coordinates
version=1
nRows=10
nColumns=63
inDegrees=yes

Units are S.I. units (second, meters, Newtons, ...)
If the header above contains a line with 'inDegrees', this indicates whether rotational values are in degrees (yes) or radians (no).

endheader
time	pelvis_tilt	pelvis_list	pelvis_rotation	pelvis_tx	pelvis_ty	pelvis_tz	hip_flexion_r	hip_adduction_r	hip_rotation_r	knee_angle_r	knee_angle_r_beta	ankle_angle_r	subtalar_angle_r	mtp_angle_r	hip_flexion_l	hip_adduction_l	hip_rotation_l	knee_angle_l	knee_angle_l_beta	ankle_angle_l	subtalar_angle_l	mtp_angle_l	L5_S1_Flex_Ext	L5_S1_Lat_Bending	L5_S1_axial_rotation	L4_L5_Flex_Ext	L4_L5_Lat_Bending	L4_L5_axial_rotation	L3_L4_Flex_Ext	L3_L4_Lat_Bending	L3_L4_axial_rotation	L2_L3_Flex_Ext	L2_L3_Lat_Bending	L2_L3_axial_rotation	L1_L2_Flex_Ext	L1_L2_Lat_Bending	L1_L2_axial_rotation	L1_T12_Flex_Ext	L1_T12_Lat_Bending	L1_T12_axial_rotation	Abs_r3	Abs_r2	Abs_r1	Abs_t1	Abs_t2	neck_flexion	neck_bending	neck_rotation	arm_flex_r	arm_add_r	arm_rot_r	elbow_flex_r	pro_sup_r	wrist_flex_r	wrist_dev_r	arm_flex_l	arm_add_l	arm_rot_l	elbow_flex_l	pro_sup_l	wrist_flex_l	wrist_dev_l
      1.31666667	      2.89924779	     -6.00435467	     82.75606584	      0.14600653	      0.94723174	      0.35604882	      2.19955537	     -0.46600387	    -13.97990475	      7.75656315	      0.13537757	     25.13842610	     18.13439485	      0.00000000	      1.49672335	      1.28915615	     -3.03821860	      8.98748645	      0.15686123	     19.17355123	     -6.82246712	      0.00000000	     -0.00048756	      0.12108063	      0.25636906	     -0.00090545	      0.16103724	      0.27239212	     -0.00080102	      0.29439544	      0.27239212	     -0.00055724	      0.29439544	      0.22432292	     -0.00045275	      0.24690762	      0.20829986	     -0.00027859	      0.18755389	      0.19227679	     -0.00348262	      1.36968828	      1.42584778	      0.00000000	      0.00000000	     20.39367652	     -0.72170248	      1.84737086	     11.88845753	     -3.85413645	    177.59619912	      1.03623063	      7.86658076	     -6.46990481	     -6.51713958	      4.29878318	    -14.71667786	     64.88224374	     26.81005642	     76.24418015	     -8.34830930	     -9.45167987
      1.33333333	      2.86788046	     -5.99692173	     82.84071210	      0.14586345	      0.94733820	      0.35635190	      2.21010539	     -0.51324263	    -14.07659832	      7.83633107	      0.13676978	     25.11736235	     18.10969485	      0.00000000	      1.58178111	      1.31503020	     -3.03629875	      9.05370148	      0.15801690	     19.01510872	     -6.82430813	      0.00000000	     -0.03073728	      0.11632074	      0.24394462	     -0.05708220	      0.15470658	      0.25919116	     -0.05049827	      0.28282225	      0.25919116	     -0.03512963	      0.28282225	      0.21345154	     -0.02854263	      0.23720125	      0.19820500	     -0.01756328	      0.18018082	      0.18295847	     -0.21955329	      1.31584346	      1.35674680	      0.00000000	      0.00000000	     19.24060720	     -0.22169913	      1.58359538	     11.99051113	     -3.82154449	    177.60866159	      0.99316340	      7.92821237	     -6.54236181	     -6.54749638	      4.39147665	    -14.74315790	     64.59270690	     26.82305514	     75.99774228	     -8.34682609	     -9.58205388
      1.35000000	      2.74456634	     -6.16014975	     82.93719188	      0.14580447	      0.94697320	      0.35629292	      2.35580346	     -0.62598286	    -14.15266387	      7.87614825	      0.13746472	     25.33490742	     18.16374219	      0.00000000	      1.80836327	      1.42806403	     -2.95688989	      9.05018920	      0.15795560	     19.06253884	     -6.84286911	      0.00000000	     -0.02982919	      0.10022522	      0.20908869	     -0.05539578	      0.13329954	      0.22215673	     -0.04900637	      0.24368760	      0.22215673	     -0.03409178	      0.24368760	      0.18295260	     -0.02769938	      0.20437927	      0.16988456	     -0.01704440	      0.15524887	      0.15681652	     -0.21306690	      1.13376775	      1.16288857	      0.00000000	      0.00000000	     17.74042028	      0.63092748	      1.38772530	     12.02757374	     -3.72544615	    177.50280032	      0.97130145	      7.98658716	     -6.66483006	     -6.68994655	      4.15911479	    -14.82449717	     63.55478198	     26.88793675	     75.02864820	     -8.06846758	    -10.05261763
      1.36666667	      2.72740656	     -6.02606473	     82.94903179	      0.14564591	      0.94691618	      0.35659128	      2.25845442	     -0.68951068	    -14.09328475	      8.03846870	      0.14029775	     25.54609267	     18.17114111	      0.00000000	      1.78545758	      1.47459516	     -2.84549723	      9.16486380	      0.15995705	     19.31247575	     -6.89067278	      0.00000000	     -0.08819786	      0.09947709	      0.19906820	     -0.16379224	      0.13230453	      0.21150997	     -0.14490026	      0.24186860	      0.21150997	     -0.10080133	      0.24186860	      0.17418468	     -0.08190053	      0.20285368	      0.16174292	     -0.05039626	      0.15409001	      0.14930115	     -0.62998849	      1.12530474	      1.10715763	      0.00000000	      0.00000000	     15.83144358	      0.85489928	      1.32918347	     12.21368851	     -3.71494709	    177.30979406	      0.92119561	      7.85934732	     -6.68445626	     -6.78781694	      4.25613747	    -14.90512024	     63.10363457	     27.05398382	     74.68417259	     -7.97579022	    -10.24737960
      1.38333333	      2.66189152	     -5.89969874	     82.96752128	      0.14559421	      0.94658505	      0.35681093	      2.17931345	     -0.79485192	    -14.00232547	      8.22695503	      0.14358745	     25.84904020	     18.18190826	      0.00000000	      1.76125731	      1.57581106	     -2.58060348	      9.22645203	      0.16103197	     19.80365714	     -6.94763818	      0.00000000	     -0.13527097	      0.09000149	      0.19496108	     -0.25121172	      0.11970198	      0.20714615	     -0.22223668	      0.21882962	      0.20714615	     -0.15460119	      0.21882962	      0.17059095	     -0.12561262	      0.18353103	      0.15840588	     -0.07729383	      0.13941230	      0.14622081	     -0.96622702	      1.01811482	      1.08431506	      0.00000000	      0.00000000	     13.29897379	      1.06017595	      1.24893008	     12.37593897	     -3.67913859	    176.93069373	      0.90862576	      7.55591020	     -6.63213792	     -6.98514234	      4.28444872	    -15.03724052	     62.50701435	     27.29435885	     74.21019621	     -7.83312906	    -10.46170222
      1.40000000	      2.44242005	     -6.09919835	     83.04591969	      0.14561628	      0.94544190	      0.35665231	      2.43210654	     -1.02348660	    -13.99341148	      8.40909992	      0.14676648	     26.32083660	     18.16816363	      0.00000000	      1.95512117	      1.83078503	     -1.99321407	      8.98484529	      0.15681513	     20.08886536	     -7.25037594	      0.00000000	     -0.11060707	      0.06268609	      0.17261540	     -0.20540839	      0.08337250	      0.18340386	     -0.18171635	      0.15241496	      0.18340386	     -0.12641282	      0.15241496	      0.15103847	     -0.10270972	      0.12782947	      0.14025001	     -0.06320088	      0.09710075	      0.12946155	     -0.79005523	      0.70911757	      0.96003505	      0.00000000	      0.00000000	     10.38050414	      1.30339364	      1.08962257	     12.28918396	     -3.65002727	    175.17689885	      0.85372724	      6.22289470	     -5.89634635	     -7.76128248	      3.82728580	    -15.29274040	     60.92321219	     27.78808138	     72.93227745	     -7.07903461	    -10.66878262
      1.41666667	      2.39458824	     -5.80424858	     83.02886371	      0.14578102	      0.94500744	      0.35719423	      2.25280311	     -1.13711873	    -13.93766957	      8.69191317	      0.15170250	     26.53358005	     18.15314880	      0.00000000	      1.80861137	      1.92366739	     -1.57536344	      9.10011352	      0.15882694	     20.67118463	     -7.33463333	      0.00000000	     -0.18366815	      0.04750417	      0.21189060	     -0.34109011	      0.06318055	      0.22513376	     -0.30174840	      0.11550164	      0.22513376	     -0.20991432	      0.11550164	      0.18540428	     -0.17055424	      0.09687050	      0.17216111	     -0.10494798	      0.07358396	      0.15891795	     -1.31192320	      0.53737667	      1.17847196	      0.00000000	      0.00000000	      7.82772922	      1.26297630	      0.91972750	     12.48557416	     -3.60710317	    174.65314306	      0.81578155	      5.84438234	     -5.74261215	     -7.96335832	      4.00739419	    -15.53726881	     60.61570494	     28.21346038	     72.86575570	     -6.96160109	    -10.79781413
      1.43333333	      2.16338521	     -5.82020332	     82.94825006	      0.14617265	      0.94398173	      0.35709350	      2.37185520	     -1.38625113	    -13.79495229	      8.90878554	      0.15548764	     26.92031208	     18.11885766	      0.00000000	      1.72130910	      2.28679848	     -0.08504696	      8.71935844	      0.15218151	     20.32806220	     -9.30900386	      0.00000000	     -0.18480158	      0.00661325	      0.34141715	     -0.34319501	      0.00879563	      0.36275572	     -0.30361051	      0.01607947	      0.36275572	     -0.21120972	      0.01607947	      0.29874001	     -0.17160674	      0.01348575	      0.27740144	     -0.10559562	      0.01024393	      0.25606286	     -1.32001918	      0.07481046	      1.89885978	      0.00000000	      0.00000000	      5.77144188	      1.30018166	     -0.17380547	     12.14727590	     -3.67249193	    169.84677650	      0.76251848	      5.26895635	     -3.82715550	     -8.98690597	      3.82361152	    -15.89328507	     58.62369009	     29.17275855	     74.87830959	     -5.85322826	     -9.58479583
      1.45000000	      2.11903990	     -5.73016771	     83.02921901	      0.14609276	      0.94341667	      0.35711845	      2.29291769	     -1.45350345	    -13.88608682	      8.97857704	      0.15670573	     26.93960334	     18.06291031	      0.00000000	      1.70293236	      2.35157855	      0.09246258	      8.77290569	      0.15311609	     20.47065020	     -9.28635708	      0.00000000	     -0.21030649	     -0.00641849	      0.41158424	     -0.39056018	     -0.00853659	      0.43730825	     -0.34551253	     -0.01560591	      0.43730825	     -0.24035928	     -0.01560591	      0.36013621	     -0.19529060	     -0.01308858	      0.33441219	     -0.12016913	     -0.00994224	      0.30868818	     -1.50219821	     -0.07260721	      2.28910804	      0.00000000	      0.00000000	      4.72175745	      1.43224064	     -0.39930125	     12.01331752	     -3.67989895	    169.62267589	      0.70702006	      5.06186157	     -3.97681609	     -9.09791897	      3.88395378	    -16.08256249	     58.42527427	     29.65507481	     74.97661684	     -5.86202380	     -9.68264603
      1.46666667	      1.98799606	     -5.86916848	     82.98353271	      0.14630202	      0.94266306	      0.35694432	      2.39774940	     -1.55000354	    -13.75469389	      8.87368623	      0.15487504	     26.94813696	     18.06941521	      0.00000000	      1.92447032	      2.35224995	     -1.51100218	      8.91005639	      0.15550982	     20.92156697	     -7.30235235	      0.00000000	     -0.19878056	     -0.03373217	      0.50558284	     -0.36915538	     -0.04486378	      0.53718177	     -0.32657658	     -0.08201639	      0.53718177	     -0.22718630	     -0.08201639	      0.44238499	     -0.18458763	     -0.06878663	      0.41078606	     -0.11358321	     -0.05225113	      0.37918713	     -1.41986967	     -0.38158501	      2.81190009	      0.00000000	      0.00000000	      4.92962360	      1.86647577	     -1.16969008	     11.57653334	     -3.64274279	    169.17771815	      0.69761612	      4.68974199	     -5.29902058	     -9.39503613	      2.87579527	    -16.22918218	     53.39928843	     31.10302552	     80.36359863	     -4.87818099	     -7.51509867
